<svg width="17" height="17" viewBox="0 0 17 17" fill="none" xmlns="http://www.w3.org/2000/svg">
<path d="M0.292893 11.6066C-0.0976311 11.2161 -0.0976311 10.5829 0.292893 10.1924L10.1924 0.292893C10.5829 -0.0976312 11.2161 -0.0976309 11.6066 0.292893C11.9971 0.683418 11.9971 1.31658 11.6066 1.70711L1.70711 11.6066C1.31658 11.9971 0.683418 11.9971 0.292893 11.6066ZM5.24264 13.7279C4.85212 13.3374 4.85212 12.7042 5.24264 12.3137L12.3137 5.24264C12.7042 4.85212 13.3374 4.85212 13.7279 5.24264C14.1184 5.63316 14.1184 6.26633 13.7279 6.65685L6.65685 13.7279C6.26633 14.1184 5.63316 14.1184 5.24264 13.7279ZM10.1924 15.8492C9.80186 15.4587 9.80186 14.8256 10.1924 14.435L14.435 10.1924C14.8256 9.80186 15.4587 9.80186 15.8492 10.1924C16.2398 10.5829 16.2398 11.2161 15.8492 11.6066L11.6066 15.8492C11.2161 16.2398 10.5829 16.2398 10.1924 15.8492Z" fill="#142251" fill-opacity="0.44"/>
</svg>
