<svg aria-hidden="true" style="position: absolute; width: 0; height: 0; overflow: hidden;" version="1.1" xmlns="http://www.w3.org/2000/svg" xmlns:xlink="http://www.w3.org/1999/xlink">
<defs>
<symbol id="icon-plus-alt" viewBox="0 0 32 32">
<path d="M16 0c-8.836 0-16 7.164-16 16s7.164 16 16 16 16-7.164 16-16-7.164-16-16-16zM24 18h-6v6h-4v-6h-6v-4h6v-6h4v6h6v4z"></path>
</symbol>
<symbol id="icon-arrow" viewBox="0 0 32 32">
<path fill="#f2f3f8" style="fill: var(--color1, #f2f3f8)" d="M32 16c0 8.837-7.163 16-16 16s-16-7.163-16-16c0-8.837 7.163-16 16-16s16 7.163 16 16z"></path>
<path fill="#142251" style="fill: var(--color2, #142251)" d="M16 11.259c0.157 0 0.308 0.062 0.419 0.174l3.556 3.556c0.231 0.231 0.231 0.607 0 0.838s-0.607 0.231-0.838 0l-2.544-2.544v6.866c0 0.327-0.265 0.593-0.593 0.593s-0.593-0.265-0.593-0.593v-6.866l-2.544 2.544c-0.231 0.231-0.607 0.231-0.838 0s-0.231-0.607 0-0.838l3.556-3.556c0.111-0.111 0.262-0.174 0.419-0.174z"></path>
</symbol>
<symbol id="icon-arrow-left" viewBox="0 0 32 32">
<path fill="#142251" style="fill: var(--color2, #142251)" opacity="0.22" d="M15.61 7.057c0.521 0.521 0.521 1.365 0 1.886l-5.724 5.724h15.448c0.736 0 1.333 0.597 1.333 1.333s-0.597 1.333-1.333 1.333h-15.448l5.724 5.724c0.521 0.521 0.521 1.365 0 1.886s-1.365 0.521-1.886 0l-8-8c-0.25-0.25-0.391-0.589-0.391-0.943s0.14-0.693 0.391-0.943l8-8c0.521-0.521 1.365-0.521 1.886 0z"></path>
</symbol>
<symbol id="icon-arrow-right" viewBox="0 0 32 32">
<path fill="#142251" style="fill: var(--color2, #142251)" d="M16.39 7.057c0.521-0.521 1.365-0.521 1.886 0l8 8c0.25 0.25 0.39 0.589 0.39 0.943s-0.14 0.693-0.39 0.943l-8 8c-0.521 0.521-1.365 0.521-1.886 0s-0.521-1.365 0-1.886l5.724-5.724h-15.448c-0.736 0-1.333-0.597-1.333-1.333s0.597-1.333 1.333-1.333h15.448l-5.724-5.724c-0.521-0.521-0.521-1.365 0-1.886z"></path>
</symbol>
<symbol id="icon-circle-check" viewBox="0 0 32 32">
<path fill="#213887" style="fill: var(--color3, #213887)" d="M16 5.333c-5.891 0-10.667 4.776-10.667 10.667s4.776 10.667 10.667 10.667c5.891 0 10.667-4.776 10.667-10.667s-4.776-10.667-10.667-10.667zM2.667 16c0-7.364 5.97-13.333 13.333-13.333s13.333 5.97 13.333 13.333c0 7.364-5.97 13.333-13.333 13.333s-13.333-5.97-13.333-13.333zM22.219 11.67c0.55 0.489 0.6 1.332 0.111 1.882l-7.111 8c-0.253 0.285-0.616 0.448-0.997 0.448s-0.744-0.163-0.997-0.448l-3.556-4c-0.489-0.55-0.44-1.393 0.111-1.882s1.393-0.44 1.882 0.111l2.559 2.879 6.115-6.879c0.489-0.55 1.332-0.6 1.882-0.111z"></path>
</symbol>
<symbol id="icon-clip" viewBox="0 0 32 32">
<path fill="#142251" style="fill: var(--color2, #142251)" d="M27.812 4.288c-1.091-1.234-3.062-1.31-4.376 0.052l-12.864 13.329c-0.333 0.345-0.333 0.784 0 1.129s0.756 0.345 1.089 0l10.64-11.025c0.62-0.643 1.626-0.643 2.246 0s0.62 1.685 0 2.327l-10.64 11.025c-1.573 1.63-4.008 1.63-5.581 0s-1.573-4.153 0-5.783l12.864-13.329c2.489-2.58 6.535-2.663 8.94 0.025 2.465 2.581 2.538 6.752-0.047 9.237l-15.064 15.61c-3.479 3.605-8.931 3.605-12.41 0s-3.479-9.254 0-12.859l12.864-13.329c0.62-0.643 1.626-0.643 2.246 0s0.62 1.685 0 2.327l-12.864 13.329c-2.238 2.319-2.238 5.885 0 8.205s5.679 2.319 7.918 0l15.087-15.633c0.016-0.017 0.033-0.033 0.050-0.049 1.191-1.131 1.264-3.173-0.050-4.535-0.016-0.017-0.032-0.034-0.048-0.052z"></path>
</symbol>
<symbol id="icon-clipboard-check" viewBox="0 0 32 32">
<path fill="#142251" style="fill: var(--color2, #142251)" d="M10.667 4c0-0.736 0.597-1.333 1.333-1.333h8c0.736 0 1.333 0.597 1.333 1.333h2.667c1.473 0 2.667 1.194 2.667 2.667v20c0 1.473-1.194 2.667-2.667 2.667h-16c-1.473 0-2.667-1.194-2.667-2.667v-20c0-1.473 1.194-2.667 2.667-2.667h2.667zM10.667 6.667h-2.667v20h16v-20h-2.667v1.333c0 0.736-0.597 1.333-1.333 1.333h-8c-0.736 0-1.333-0.597-1.333-1.333v-1.333zM18.667 5.333h-5.333v1.333h5.333v-1.333zM20.943 14.391c0.521 0.521 0.521 1.365 0 1.886l-5.333 5.333c-0.521 0.521-1.365 0.521-1.886 0l-2.667-2.667c-0.521-0.521-0.521-1.365 0-1.886s1.365-0.521 1.886 0l1.724 1.724 4.391-4.391c0.521-0.521 1.365-0.521 1.886 0z"></path>
</symbol>
<symbol id="icon-close" viewBox="0 0 32 32">
<path fill="#989eb1" style="fill: var(--color4, #989eb1)" d="M16 5.333c-5.891 0-10.667 4.776-10.667 10.667s4.776 10.667 10.667 10.667c5.891 0 10.667-4.776 10.667-10.667s-4.776-10.667-10.667-10.667zM2.667 16c0-7.364 5.97-13.333 13.333-13.333s13.333 5.97 13.333 13.333c0 7.364-5.97 13.333-13.333 13.333s-13.333-5.97-13.333-13.333zM10.391 10.391c0.521-0.521 1.365-0.521 1.886 0l3.724 3.724 3.724-3.724c0.521-0.521 1.365-0.521 1.886 0s0.521 1.365 0 1.886l-3.724 3.724 3.724 3.724c0.521 0.521 0.521 1.365 0 1.886s-1.365 0.521-1.886 0l-3.724-3.724-3.724 3.724c-0.521 0.521-1.365 0.521-1.886 0s-0.521-1.365 0-1.886l3.724-3.724-3.724-3.724c-0.521-0.521-0.521-1.365 0-1.886z"></path>
</symbol>
<symbol id="icon-Icon" viewBox="0 0 32 32">
<path fill="#142251" style="fill: var(--color2, #142251)" opacity="0.44" d="M0.551 21.848c-0.735-0.735-0.735-1.927 0-2.662l18.634-18.634c0.735-0.735 1.927-0.735 2.662 0s0.735 1.927 0 2.662l-18.634 18.634c-0.735 0.735-1.927 0.735-2.662 0zM9.868 25.841c-0.735-0.735-0.735-1.927 0-2.662l13.31-13.31c0.735-0.735 1.927-0.735 2.662 0s0.735 1.927 0 2.662l-13.31 13.31c-0.735 0.735-1.927 0.735-2.662 0zM19.186 29.834c-0.735-0.735-0.735-1.927 0-2.662l7.986-7.986c0.735-0.735 1.927-0.735 2.662 0s0.735 1.927 0 2.662l-7.986 7.986c-0.735 0.735-1.927 0.735-2.662 0z"></path>
</symbol>
<symbol id="icon-notes" viewBox="0 0 30 32">
<path fill="#142251" style="fill: var(--color2, #142251)" d="M21.944 0.529c0.645-0.645 1.69-0.645 2.335 0l4.952 4.952c0.645 0.645 0.645 1.69 0 2.335l-14.857 14.857c-0.31 0.309-0.729 0.483-1.167 0.483h-4.952c-0.912 0-1.651-0.739-1.651-1.651v-4.952c0-0.438 0.174-0.858 0.484-1.167l14.857-14.857zM9.905 17.238v2.618h2.618l13.206-13.206-2.618-2.618-13.206 13.206zM0 6.649c0-1.823 1.478-3.302 3.302-3.302h8.254c0.912 0 1.651 0.739 1.651 1.651s-0.739 1.651-1.651 1.651h-8.254v19.81h19.809v-8.254c0-0.912 0.739-1.651 1.651-1.651s1.651 0.739 1.651 1.651v8.254c0 1.823-1.478 3.302-3.302 3.302h-19.809c-1.823 0-3.302-1.478-3.302-3.302v-19.81z"></path>
</symbol>
<symbol id="icon-ok" viewBox="0 0 40 32">
<path fill="none" stroke="#142251" style="stroke: var(--color2, #142251)" stroke-linejoin="miter" stroke-linecap="round" stroke-miterlimit="4" stroke-width="5.1429" d="M3.429 16.605l10.799 10.824 22.344-24"></path>
</symbol>
<symbol id="icon-open" viewBox="0 0 62 32">
<path d="M7.529 0h47.059v3.765h-47.059v-3.765z"></path>
<path d="M7.529 13.176h47.059v3.765h-47.059v-3.765z"></path>
</symbol>
<symbol id="icon-switcher" viewBox="0 0 55 32">
<path fill="#f2f3f8" style="fill: var(--color1, #f2f3f8)" d="M9.143 6.476h36.571c2.525 0 4.571 2.047 4.571 4.571v9.905c0 2.525-2.047 4.571-4.571 4.571h-36.571c-2.525 0-4.571-2.047-4.571-4.571v-9.905c0-2.525 2.047-4.571 4.571-4.571z"></path>
<path fill="#989eb1" style="fill: var(--color4, #989eb1)" d="M9.143 4.762h13.714c2.42 0 4.381 1.961 4.381 4.381v13.714c0 2.42-1.961 4.381-4.381 4.381h-13.714c-2.42 0-4.381-1.961-4.381-4.381v-13.714c0-2.42 1.961-4.381 4.381-4.381z"></path>
<path fill="#f2f3f8" style="fill: var(--color1, #f2f3f8)" d="M16 11.81c0.421 0 0.762 0.341 0.762 0.762v6.857c0 0.421-0.341 0.762-0.762 0.762s-0.762-0.341-0.762-0.762v-6.857c0-0.421 0.341-0.762 0.762-0.762z"></path>
</symbol>
<symbol id="icon-switcher2" viewBox="0 0 55 32">
<path fill="#f2f3f8" style="fill: var(--color1, #f2f3f8)" d="M9.143 6.476h36.571c2.525 0 4.571 2.047 4.571 4.571v9.905c0 2.525-2.047 4.571-4.571 4.571h-36.571c-2.525 0-4.571-2.047-4.571-4.571v-9.905c0-2.525 2.047-4.571 4.571-4.571z"></path>
<path fill="#213887" style="fill: var(--color3, #213887)" d="M32 4.762h13.714c2.42 0 4.381 1.961 4.381 4.381v13.714c0 2.42-1.961 4.381-4.381 4.381h-13.714c-2.42 0-4.381-1.961-4.381-4.381v-13.714c0-2.42 1.961-4.381 4.381-4.381z"></path>
<path fill="#f2f3f8" style="fill: var(--color1, #f2f3f8)" d="M38.857 11.81c0.421 0 0.762 0.341 0.762 0.762v6.857c0 0.421-0.341 0.762-0.762 0.762s-0.762-0.341-0.762-0.762v-6.857c0-0.421 0.341-0.762 0.762-0.762z"></path>
</symbol>
<symbol id="icon-Telegram" viewBox="0 0 32 32">
<path fill="#213887" style="fill: var(--color3, #213887)" d="M16 32c8.837 0 16-7.163 16-16s-7.163-16-16-16c-8.837 0-16 7.163-16 16s7.163 16 16 16z"></path>
<path fill="#fff" style="fill: var(--color5, #fff)" d="M7.243 15.832c4.664-2.032 7.775-3.372 9.331-4.019 4.443-1.848 5.367-2.169 5.968-2.18 0.132-0.002 0.428 0.030 0.62 0.186 0.162 0.131 0.206 0.309 0.228 0.433s0.048 0.408 0.027 0.63c-0.241 2.53-1.283 8.67-1.813 11.503-0.224 1.199-0.666 1.601-1.093 1.64-0.929 0.085-1.635-0.614-2.535-1.204-1.408-0.923-2.204-1.498-3.571-2.399-1.58-1.041-0.556-1.613 0.345-2.548 0.236-0.245 4.329-3.968 4.409-4.306 0.010-0.042 0.019-0.2-0.074-0.283s-0.232-0.055-0.331-0.032c-0.141 0.032-2.391 1.519-6.749 4.461-0.639 0.439-1.217 0.652-1.735 0.641-0.571-0.012-1.67-0.323-2.487-0.588-1.002-0.326-1.798-0.498-1.729-1.051 0.036-0.288 0.433-0.583 1.19-0.884z"></path>
</symbol>
<symbol id="icon-whatsapp" viewBox="0 0 30 32">
<path fill="#213887" style="fill: var(--color3, #213887)" d="M14.896 21.586h0.004c5.647-0.002 10.24-4.596 10.243-10.243 0.001-2.737-1.063-5.31-2.997-7.246s-4.506-3.003-7.246-3.004c-5.646 0-10.241 4.595-10.243 10.242-0.001 1.805 0.471 3.567 1.367 5.121l-1.453 5.308 5.43-1.424c1.496 0.816 3.18 1.246 4.895 1.247zM19.711 13.549c0.178 0.086 0.299 0.145 0.351 0.23 0.064 0.107 0.064 0.619-0.149 1.217s-1.236 1.143-1.728 1.217c-0.441 0.066-0.999 0.093-1.612-0.101-0.372-0.118-0.848-0.275-1.459-0.539-2.399-1.036-4.021-3.361-4.327-3.801-0.021-0.031-0.036-0.052-0.045-0.063l-0.002-0.003c-0.135-0.181-1.043-1.392-1.043-2.645 0-1.179 0.579-1.797 0.846-2.081 0.018-0.019 0.035-0.037 0.050-0.054 0.235-0.256 0.512-0.32 0.682-0.32s0.341 0.002 0.491 0.009c0.018 0.001 0.038 0.001 0.057 0.001 0.149-0.001 0.335-0.002 0.518 0.439 0.070 0.17 0.174 0.421 0.283 0.686 0.22 0.536 0.464 1.129 0.506 1.214 0.064 0.128 0.107 0.277 0.021 0.448-0.013 0.026-0.025 0.050-0.036 0.073-0.064 0.131-0.111 0.227-0.22 0.354-0.043 0.050-0.087 0.104-0.131 0.158-0.088 0.107-0.176 0.214-0.253 0.291-0.128 0.128-0.261 0.266-0.112 0.522s0.663 1.094 1.424 1.773c0.818 0.729 1.529 1.038 1.889 1.194 0.070 0.030 0.127 0.055 0.169 0.076 0.256 0.128 0.405 0.107 0.555-0.064s0.64-0.747 0.81-1.003c0.171-0.256 0.341-0.213 0.576-0.128s1.493 0.705 1.749 0.833c0.050 0.025 0.097 0.048 0.14 0.068z"></path>
</symbol>
</defs>
</svg>
